<?xml version="1.0" encoding="UTF-8" standalone="no"?>
<!-- Created with Inkscape (http://www.inkscape.org/) -->

<svg
   width="48"
   height="48"
   viewBox="0 0 12.7 12.7"
   version="1.1"
   id="svg1"
   inkscape:version="1.3.2 (091e20ef0f, 2023-11-25)"
   sodipodi:docname="icon.svg"
   xmlns:inkscape="http://www.inkscape.org/namespaces/inkscape"
   xmlns:sodipodi="http://sodipodi.sourceforge.net/DTD/sodipodi-0.dtd"
   xmlns="http://www.w3.org/2000/svg"
   xmlns:svg="http://www.w3.org/2000/svg">
  <sodipodi:namedview
     id="namedview1"
     pagecolor="#ffffff"
     bordercolor="#000000"
     borderopacity="0.25"
     inkscape:showpageshadow="2"
     inkscape:pageopacity="0.0"
     inkscape:pagecheckerboard="0"
     inkscape:deskcolor="#d1d1d1"
     inkscape:document-units="mm"
     inkscape:zoom="12.471942"
     inkscape:cx="18.722025"
     inkscape:cy="22.370214"
     inkscape:window-width="1900"
     inkscape:window-height="1025"
     inkscape:window-x="0"
     inkscape:window-y="0"
     inkscape:window-maximized="1"
     inkscape:current-layer="layer1" />
  <defs
     id="defs1" />
  <g
     inkscape:label="SlÄnis 1"
     inkscape:groupmode="layer"
     id="layer1">
    <path
       style="fill:#ff94c9;stroke-width:0.264583;fill-opacity:1"
       id="path3"
       d="M 3.3766106,2.2522752 C 3.1766933,2.2874718 2.9574058,2.3538893 2.8007225,2.4900497 2.7104985,2.5684556 2.6863265,2.6133914 2.6290487,2.7002364 2.5502709,2.8187742 2.4900167,2.9508513 2.4727475,3.0934633 c -0.012893,0.1064734 -0.00889,0.151442 -0.00707,0.2546474 0.012854,0.1693461 0.049992,0.3291224 0.1391245,0.4762421 0.076239,0.1258385 0.1903535,0.2327648 0.2926237,0.336995 0.1001601,0.088106 0.1548855,0.1470859 0.2792529,0.207726 0.2015206,0.098259 0.1295431,0.043408 0.2742628,0.087556 0.00447,0.00138 -0.017997,-9.77e-5 -0.013867,0.00209 0.024858,0.013187 0.052079,0.021325 0.078118,0.031989 0.188986,0.059761 0.350955,0.0741 0.5449977,0.021799 0.052241,-0.014081 0.103545,-0.03411 0.1502307,-0.061455 C 4.3372325,4.3767769 4.3804199,4.3270294 4.4749235,4.2352473 4.5136976,4.1859133 4.5575118,4.1401539 4.5912457,4.0872457 4.701374,3.9145207 4.7683411,3.7133437 4.7845648,3.5092796 4.7959075,3.3665996 4.7821306,3.3239297 4.7608793,3.1933639 4.7325316,3.002598 4.6419901,2.8456514 4.5341362,2.6898735 4.4864432,2.6299162 4.4647651,2.5977109 4.4077709,2.5458928 4.3841172,2.5243872 4.3152117,2.4593816 4.3328084,2.4860715 4.3788908,2.5559675 4.4157555,2.6505209 4.4948482,2.6779685 4.6251317,2.7231845 4.3468139,2.4883003 4.3118309,2.4581869 4.297101,2.4442686 4.2835316,2.4290094 4.2676413,2.4164321 4.2252984,2.3829172 4.1803023,2.3528816 4.1373821,2.3201091 4.1087574,2.2982522 4.0865573,2.2617175 4.0491293,2.2532423 3.6898101,2.1718784 3.4908013,2.2277731 3.6350641,2.1879491 c 0.097154,0.00573 0.1953537,0.032533 0.2914618,0.017203 0.049024,-0.00782 -0.094572,-0.030957 -0.1432211,-0.040848 -0.1286512,-0.026156 -0.2634654,-0.02067 -0.3935375,-0.011161 -0.1059342,-0.00118 -0.2078784,0.033048 -0.3045804,0.076792 -0.027678,0.012521 -0.055797,0.025154 -0.080278,0.043143 -0.05393,0.03963 -0.1026009,0.085959 -0.1539015,0.1289381 -0.1197727,0.1854175 -0.082502,0.1075905 -0.1379093,0.2361843 -0.00518,0.012011 0.00852,-0.025009 0.015634,-0.035987 0.019828,-0.030622 0.097942,-0.1034245 0.064785,-0.08821 -0.099191,0.045516 -0.1574203,0.3602258 -0.1619726,0.3750493 0.00151,-0.017563 0.012366,-0.068478 0.00454,-0.052685 -0.010135,0.020447 -0.00923,0.04476 -0.011847,0.067432 -0.012357,0.1071872 -0.00842,0.213523 -0.00535,0.320974 -0.00231,0.1988182 0.066464,0.3282598 0.187353,0.4821176 0.036346,0.046258 0.083868,0.08257 0.1274969,0.122033 0.030157,0.027277 0.060992,0.053961 0.093735,0.078074 0.04381,0.032263 0.090413,0.060551 0.1356188,0.090827 0.1603055,0.086312 0.2926189,0.124876 0.4755984,0.1244203 0.074234,-1.849e-4 0.218404,-0.025395 0.2935724,-0.037708 0.0597,-0.019741 0.1229264,-0.030969 0.1791012,-0.059222 C 4.3625401,3.8989865 4.523102,3.696295 4.5428904,3.4078926 4.5550322,3.2309506 4.5055728,3.1664645 4.4372666,3.0240227 c 0.00878,0.015544 0.01629,0.031876 0.026339,0.046633 0.00344,0.00506 -0.00363,-0.011742 -0.00633,-0.017238 C 4.4400236,3.0182188 4.425493,2.98133 4.4038053,2.9486746 4.3409692,2.8540628 4.2626018,2.7834058 4.1797247,2.7085176 4.0974877,2.6434681 3.9909916,2.5570849 3.8899988,2.5239533 3.776259,2.4866396 3.701624,2.4760691 3.5931006,2.4684859 c 0.00656,-4.366e-4 0.025998,4.815e-4 0.019674,-0.00131 -0.021579,-0.00611 -0.044054,-0.00852 -0.066231,-0.011871 -0.1566989,-0.023677 -0.2484937,-0.012995 -0.4117721,0.063599 -0.052159,0.024468 -0.090404,0.071441 -0.1356063,0.1071616 -0.087569,0.1005233 -0.1503688,0.21489 -0.1750666,0.3467382 -0.00675,0.036042 -0.011253,0.072469 -0.016785,0.1087181 -0.00314,0.020553 0.015838,-0.081465 0.0096,-0.061631 -0.010636,0.033813 -0.015253,0.069233 -0.022879,0.1038497 -0.028352,0.1653075 0.00883,0.3213984 0.096286,0.4626555 0.024416,0.039436 0.057102,0.073114 0.086264,0.1091816 0.00991,0.012261 0.019711,0.024712 0.030942,0.03578 0.031372,0.030913 0.064482,0.060012 0.096723,0.090018 0.070876,0.019928 0.1339948,0.1001752 0.1984693,0.1384178 0.097048,0.057563 0.1904092,0.1092528 0.3008116,0.1360977 0.059258,0.014409 0.1205484,0.018563 0.1808226,0.027844 0.2416281,-0.011501 0.073829,0.00183 0.2437398,-0.020566 0.1263615,-0.016642 0.019656,0.042054 0.2841968,-0.066935 0.049591,-0.020431 0.089807,-0.058665 0.1347111,-0.087998 0.032733,-0.031915 0.068602,-0.060903 0.098201,-0.095746 0.064891,-0.076388 0.1373086,-0.1902825 0.1554691,-0.2898436 0.014671,-0.080431 0.012724,-0.1635869 0.0073,-0.2451643 -0.00217,-0.032459 -0.052599,-0.1681482 -0.019955,-0.078861 -0.041097,-0.1248998 -0.039402,-0.150249 -0.1296684,-0.2663018 -0.028724,-0.03693 -0.068166,-0.06416 -0.1005768,-0.097901 -0.01039,-0.010816 0.025953,0.041399 0.034395,0.029004 0.0087,-0.012777 -0.019976,-0.023598 -0.030147,-0.035241 C 4.4492891,2.8536125 4.4363245,2.839257 4.4234795,2.8247951 4.3793809,2.7892976 4.3352823,2.7538 4.2911839,2.7183024 c 0,0 -0.5335341,0.8457785 -0.5335341,0.8457785 v 0 c -0.026908,-0.024654 -0.053815,-0.049306 -0.080723,-0.073959 0.047816,0.053383 0.092211,0.1107221 0.1468387,0.1576274 0.019809,0.01701 -0.037871,-0.036555 -0.052297,-0.058319 -0.04985,-0.075207 -0.04641,-0.079654 -0.062839,-0.1488001 0.00856,0.033841 0.015745,0.068059 0.02568,0.1015232 0.00532,0.017907 -0.012097,-0.036105 -0.011806,-0.054783 0.0018,-0.1158255 -0.00124,-0.2626912 0.1129054,-0.3303084 0.1913212,-0.095164 -0.1676411,0.07638 0.2107215,-0.05519 0.027934,-0.00971 -0.05915,0.00167 -0.088634,0.00397 -0.029023,0.00228 -0.057924,0.00598 -0.086787,0.00979 -0.010956,0.00146 -0.030204,-0.00483 -0.032614,0.00596 -0.00222,0.00994 0.02001,0.00377 0.030017,0.00566 0.013121,0.00532 0.027466,0.00828 0.039365,0.015954 0.00364,0.00235 -0.00941,-0.00143 -0.012951,0.00108 -0.00238,0.00169 0.00156,0.010255 -9.525e-4,0.00874 C 3.8922739,3.1522588 3.644538,2.9673756 3.7552624,3.062321 3.7789244,3.106 3.7397894,3.031464 3.7176824,3.024196 c -0.017317,-0.00569 0.021439,0.029738 0.029225,0.046219 0.032889,0.069611 0.05085,0.15855 0.030808,0.2331831 -0.024395,0.057804 -0.00411,0.012245 0.023416,-0.1111326 0.0019,-0.0085 -0.00127,0.031178 -0.00744,0.025043 -0.00635,-0.00631 0.011057,-0.033726 0.0064,-0.026083 -0.092225,0.1511495 0.019897,0.013118 -0.096356,0.144277 -0.029371,0.020002 -0.054793,0.047654 -0.088112,0.060006 -0.1297101,0.048088 -0.1531869,0.05417 -0.2485932,0.044838 -0.00185,-1.805e-4 0.00371,-7.409e-4 0.00554,-4.763e-4 0.013663,0.00193 0.027175,0.00481 0.040792,0.00704 0.041127,0.00672 0.082292,0.013205 0.1234387,0.019807 0.016364,-8.467e-4 0.063842,0.011203 0.048975,0.00431 -0.035116,-0.016288 -0.073799,-0.023503 -0.1100428,-0.037098 -0.00241,-8.996e-4 -0.00691,-0.00443 -0.00487,-0.00601 0.00262,-0.00204 0.00683,6.086e-4 0.00969,0.00228 0.010192,0.00596 0.019325,0.013557 0.028989,0.020333 0.015441,0.013933 0.030664,0.02811 0.046325,0.041796 0.00551,0.00482 0.019807,0.020534 0.017177,0.013697 -0.00721,-0.018756 -0.022379,-0.033483 -0.031645,-0.051314 -0.00749,-0.014412 -0.00425,-0.052958 -0.01846,-0.045095 -0.014248,0.00788 0.010869,0.030743 0.017626,0.045557 0.014684,0.032193 0.031097,0.06357 0.046645,0.095355 -0.012359,-0.031295 -0.031106,-0.060773 -0.037079,-0.093885 -0.00784,-0.043464 -0.012266,-0.089106 -0.00375,-0.1324417 0.019738,-0.1003959 0.057475,-0.1577919 0.1395619,-0.2108671 0.040624,-0.026268 0.046357,-0.021725 0.077272,-0.014589 -0.018378,0.00344 -0.036626,0.00768 -0.055137,0.010329 -0.2029028,0.028992 -0.015378,-0.013623 -0.00873,0.044515 -0.06995,-0.034887 -6.879e-4,0.00283 -0.099171,-0.070404 -0.00604,-0.00449 -0.021394,-0.017452 -0.02023,-0.010017 0.00477,0.030454 0.025858,0.056516 0.032233,0.086674 0.00688,0.032567 0.00143,0.06681 0.00715,0.099604 0.00362,0.020831 -5.556e-4,-0.042281 -8.466e-4,-0.063422 -0.00124,-0.043078 0.00217,-0.090003 -0.00406,-0.1327492 -1.513e-4,-0.00103 -0.00279,0.00153 -0.0031,5.557e-4 -0.012348,-0.039632 0.1992424,-0.1068107 0.018878,-0.1230948 -0.027903,0.07546 -0.04894,0.1538274 -0.083709,0.2263799 -0.011991,0.025022 -0.071528,0.084797 -0.054806,0.062654 0.031816,-0.04213 0.070029,-0.07934 0.1001514,-0.1226982 0.018574,-0.026736 0.03063,-0.057463 0.045227,-0.086562 8.996e-4,-0.00177 0.00243,-0.00736 0.00114,-0.00586 -0.021815,0.025008 -0.042105,0.051311 -0.063158,0.076966 -0.027741,0.018251 -0.055483,0.0365 -0.083224,0.05475 0.0045,-0.00304 0.018926,-0.00905 0.013494,-0.00913 -0.012539,-1.905e-4 -0.024138,0.00723 -0.03658,0.00878 -0.029766,0.00372 -0.060205,0.00164 -0.089719,0.007 -0.029799,0.00542 0.096113,-0.00381 0.090804,-0.00325 0.025569,-0.00272 0.01714,-0.00209 0.054736,-0.00377 0.012684,-5.556e-4 0.025442,5.9e-5 0.038064,-0.00132 0.00266,-2.91e-4 0.00941,-0.00214 0.00718,-0.00361 -0.090057,-0.059346 -0.468027,-0.065938 0.2980749,0.019227 0.1544791,-0.03859 0.014266,-2.395e-4 -0.3741031,-0.075623 -0.00435,-8.467e-4 -0.013179,-0.011816 -0.00967,-0.00911 0.028869,0.022238 0.056078,0.046663 0.085796,0.067753 0.00446,0.00316 0.010541,0.0029 0.015809,0.00435 0.024725,0.022868 0.049452,0.045738 0.074178,0.068607 0.010589,0.00909 0.03896,0.039239 0.03177,0.027276 C 3.6591382,3.1896523 3.5367198,3.0458185 3.58306,3.0886567 c 0.067068,0.062 0.1145092,0.1423244 0.1717637,0.2134867 -0.00932,-0.0082 -0.055356,-0.045402 -0.0541,-0.053758 0.00111,-0.00739 0.010149,0.010975 0.015221,0.016462 0.00978,0.013496 0.019555,0.026992 0.029335,0.040488 0.00265,0.00228 0.00584,0.00402 0.00791,0.00683 0.00626,0.00849 0.016267,0.031688 0.016825,0.031689 0.00505,1.08e-5 -0.00175,-0.020077 -6.35e-4,-0.015145 0.00489,0.021955 0.00804,0.044261 0.012054,0.066391 8.466e-4,-0.00522 -0.00172,-0.012533 0.00254,-0.015669 0.00201,-0.00148 0.015184,0.00961 0.012234,0.037231 -0.00222,0.020698 -0.010544,0.040343 -0.013801,0.060902 -0.00888,0.056032 0.015777,-0.019402 -0.00786,0.043935 -0.01738,0.017351 -0.057674,0.028128 -0.052138,0.052054 0.00478,0.020656 0.038187,-0.018722 0.058296,-0.02544 0.00915,-0.00306 0.019079,-0.00344 0.028729,-0.00363 0.046172,-9.261e-4 0.063551,-0.011253 0.084607,0.020788 -0.08282,-0.033891 -0.1251833,-0.05234 -0.220821,-0.083606 -0.016883,-0.00552 -0.053549,-0.029241 -0.052023,-0.011544 0.0018,0.020778 0.037519,0.018912 0.053784,0.031966 0.00233,0.00188 -0.00127,0.0098 -0.00379,0.00816 -0.02232,-0.014597 -0.041116,-0.033975 -0.061673,-0.050963 -0.0239,-0.024082 -0.04819,-0.047785 -0.071701,-0.072247 -0.019624,-0.020418 -0.036223,-0.043895 -0.057684,-0.062372 -0.00257,-0.00222 -0.00397,0.00611 -0.00373,0.0095 0.00101,0.013856 0.00877,0.027205 0.00735,0.041024 -0.00188,0.018198 -0.029719,-0.089131 -0.018378,-0.051716 -0.00315,-0.081533 -8.467e-4,-0.088063 -0.040395,-0.00389 -0.013502,0.028741 0.06733,-0.1305451 0.047732,-0.082444 0.023244,-0.047131 -0.056255,0.05977 -0.1003389,0.058694 -0.015346,-3.704e-4 0.027533,-0.01361 0.040963,-0.021045 0.0089,-0.00492 0.016261,-0.012988 0.025974,-0.016007 0.025606,-0.00796 0.052482,-0.01102 0.078724,-0.016531 z" />
    <path
       style="fill:#ff94c9;fill-opacity:1;stroke-width:0.264583"
       id="path5"
       d="m 8.6660357,2.0245 c -0.1127009,0 -0.2254018,0 -0.3381029,0 -0.070738,0.015456 -0.1414753,0.030912 -0.212213,0.046369 -0.00775,0.00302 -0.03122,0.011463 -0.023257,0.00906 C 8.1098538,2.074669 8.1262708,2.0661 8.1440388,2.062314 8.1717098,2.056424 8.255494,2.043724 8.2281598,2.051021 7.9303268,2.130526 8.0967212,2.064839 8.0015106,2.103233 7.9600846,2.127113 7.9194206,2.152368 7.8772313,2.174873 7.8612663,2.183393 7.9390023,2.13736 7.9227243,2.145261 7.78608,2.211586 7.6876499,2.3307677 7.625698,2.4686083 7.613665,2.5072523 7.601634,2.5458953 7.589601,2.5845387 c -0.00349,0.018981 0.00434,-0.021276 0.00106,-0.016752 -0.00504,0.00693 -0.00486,0.01828 -0.012271,0.022585 -0.00643,0.00374 0.00583,-0.013692 0.00875,-0.020538 C 7.5646,2.6156007 7.542058,2.6613687 7.519517,2.7071364 7.478035,2.7967064 7.471851,2.88112 7.471768,2.9802512 c -2.25e-5,0.026983 0.00738,0.053459 0.010853,0.080219 9.79e-4,0.00761 -0.00259,-0.015134 -0.00365,-0.022736 -3.175e-4,-0.00347 0.00143,-0.00786 -9.525e-4,-0.010396 -0.00201,-0.00214 -3.969e-4,0.00589 -5.027e-4,0.00884 -3.175e-4,0.00801 -6.35e-4,0.016013 -7.938e-4,0.024024 -2.91e-4,0.01451 -4.498e-4,0.02902 -5.292e-4,0.043531 -5.82e-4,0.092988 0.00119,0.043655 0.031019,0.2136243 0.024487,0.086242 0.068253,0.1670748 0.1230432,0.2378419 0.015557,0.020095 0.059307,0.081897 0.048301,0.05899 C 7.599064,3.4937148 7.589261,3.4614102 7.616949,3.5338054 7.66537,3.6536905 7.7407684,3.7331642 7.8383981,3.8131533 c 0.00577,0.00473 0.022378,0.019614 0.017481,0.013983 -0.1270143,-0.1459457 -0.077977,-0.0721 -0.1135811,-0.1263978 0.089025,0.1433436 0.048944,0.098056 0.2446409,0.2496127 0.01574,0.012189 0.034824,0.019897 0.053783,0.025971 0.055394,0.017748 0.1124315,0.029888 0.1685319,0.045257 0.03699,0.010134 -0.073782,-0.037969 -0.1111998,-0.029551 -0.032668,0.00735 0.063196,0.022161 0.094794,0.033242 -0.1622919,-0.058216 0.04429,0.018698 0.067477,0.024707 0.039611,0.010266 0.080509,0.015714 0.1213125,0.018788 0.035441,0.00267 0.1399318,0.010761 0.1066123,-0.00161 -0.038767,-0.014391 -0.082769,-0.00846 -0.1239618,-0.00483 -0.01769,0.00156 0.03473,0.00744 0.052095,0.011157 0.1629158,0.026019 0.3234438,0.023185 0.4809021,-0.032063 0.040348,-0.014158 0.076008,-0.039195 0.1140119,-0.058792 -0.01307,0.0077 -0.054113,0.025956 -0.039214,0.023101 C 9.031239,3.9943962 9.1517189,3.9113712 9.19623,3.881377 9.20295,3.876847 9.223224,3.863438 9.216211,3.867507 9.193957,3.880416 9.172375,3.894454 9.150458,3.907927 9.3957132,3.816471 9.4768649,3.5640512 9.5264992,3.3934693 c 0.029515,-0.1034041 0.05469,-0.2088104 0.058787,-0.3171875 0.00119,-0.031421 -0.00135,-0.062873 -0.00204,-0.09431 -0.0069,-0.074468 -0.00481,-0.1491126 -0.00335,-0.2237232 C 9.5665556,2.6888015 9.5644204,2.6162341 9.5398935,2.5499094 9.4861776,2.4046654 9.4420107,2.3894575 9.3492737,2.2915258 c -0.0071,-0.0075 0.017476,0.011658 0.023852,0.019787 0.023474,0.029929 0.061982,0.1315886 0.065149,0.093684 0.00345,-0.041323 -0.042711,-0.071089 -0.064067,-0.106634 -0.22468,-0.2122823 -0.031601,-0.062294 -0.3654425,-0.2121884 -0.023564,-0.01058 0.049889,0.017103 0.075712,0.016506 0.018971,-4.393e-4 -0.071192,-0.0257 -0.054329,-0.017001 0.028267,0.014582 0.057158,0.032039 0.088843,0.034806 0.024344,0.00212 -0.043715,-0.021849 -0.065573,-0.032774 -0.1697268,-0.047548 -0.1228098,-0.04795 -0.2883088,-0.046151 -0.018862,2.05e-4 -0.075116,0.00367 -0.056331,0.00537 0.29826,0.027055 0.022024,-0.017766 -0.00893,-0.022523 -0.1721083,-0.018769 -0.3450762,0.012986 -0.5010309,0.087179 -0.027059,0.012873 -0.052084,0.029643 -0.078127,0.044465 0.00825,-0.00504 0.033328,-0.019556 0.024741,-0.015118 -0.1016738,0.052549 -0.067554,0.036946 -0.1772938,0.123015 -0.023617,0.018522 0.048788,-0.03533 0.070296,-0.056262 0.010308,-0.010033 -0.024747,0.014755 -0.036364,0.02324 -0.024493,0.017891 -0.047909,0.03721 -0.071864,0.055816 -0.072022,0.061729 -0.1268887,0.1337745 -0.1822292,0.210382 -0.00637,0.00881 -0.013573,0.017245 -0.018095,0.02713 -0.026583,0.058098 -0.050013,0.1175863 -0.07502,0.1763795 -0.026371,0.06625 -0.031657,0.1392092 -0.035038,0.2094447 -0.00175,0.036184 0.010459,-0.071877 0.011247,-0.1080934 2.645e-4,-0.012203 -0.00739,0.023326 -0.00966,0.035318 -0.00716,0.03775 -0.012409,0.075838 -0.018613,0.1137565 -0.00309,0.091427 -0.00497,0.070625 6.879e-4,0.151637 7.144e-4,0.01026 -0.00238,0.021971 0.00306,0.030706 0.1897975,0.3051572 0.3857008,0.4948164 0.1860727,0.3360645 -0.017134,-0.018695 -0.066946,-0.076123 -0.051402,-0.056086 0.1316818,0.1697424 0.2322804,0.2394265 0.4307758,0.3191052 0.091136,0.028891 0.1801527,0.056763 0.2768563,0.060379 0.032529,0.00122 0.068972,0.010602 0.097525,-0.00503 0.1343822,-0.073561 0.2540384,-0.1713002 0.3810574,-0.2569504 -0.094265,0.140742 0.1182156,-0.157213 0.075183,-0.151906 -0.044198,0.00545 -0.045288,0.07711 -0.061608,0.1185447 -0.00743,0.018857 0.031762,-0.029923 0.034605,-0.049989 0.022024,-0.1554136 0.02599,-0.312855 0.038984,-0.4692825 -0.070418,-0.1016264 -0.076452,-0.1417894 -0.1344959,-0.2117333 -0.015849,-0.019098 -0.060906,-0.077764 -0.049177,-0.055895 0.024064,0.044868 0.2581868,0.3205948 -0.069284,-0.073611 0,0 -0.6343756,0.7730249 -0.6343756,0.7730249 v 0 c -0.038722,-0.049438 -0.062883,-0.11508 -0.1161653,-0.1483128 -0.044815,-0.027952 0.059446,0.087323 0.08879,0.1312384 0.00355,0.00532 -0.00792,-0.010062 -0.011406,-0.015428 -0.00172,-0.00262 0.00418,0.00469 0.00606,0.00719 0.013721,0.018312 0.047287,0.077178 0.040733,0.055254 -0.012256,-0.040991 -0.038925,-0.076203 -0.058387,-0.1143042 0.019204,-0.1396699 0.033892,-0.2800353 0.057611,-0.4190095 0.00169,-0.00992 0.022884,-0.033043 0.018037,-0.02422 -0.028656,0.052143 -0.058891,0.1034148 -0.089572,0.1543923 -0.010713,0.017801 0.018865,-0.037067 0.029649,-0.054826 0.0045,-0.00741 0.020757,-0.027714 0.016055,-0.020436 -0.013991,0.021656 -0.02931,0.042426 -0.043965,0.063639 0.121871,-0.076872 0.238937,-0.1619628 0.3656232,-0.230623 0.020315,-0.011009 0.1134427,0.00709 0.1296871,0.010192 0.00414,7.937e-4 0.015928,0.00545 0.011874,0.00431 -0.061455,-0.017296 -0.084581,-0.027733 -0.030877,-0.00602 -0.010073,-0.00391 -0.019484,-0.010515 -0.030221,-0.011742 -0.00533,-6.085e-4 0.00868,0.00631 0.012798,0.00975 0.011737,0.00981 0.023611,0.019481 0.03474,0.029973 5.821e-4,5.556e-4 -0.00269,-7.6e-5 -0.0023,6.085e-4 0.0084,0.014462 0.037868,0.055015 0.027141,0.042188 -0.032568,-0.038944 -0.061889,-0.080493 -0.092833,-0.1207402 -0.022722,-0.019905 -0.044412,-0.041054 -0.068166,-0.059717 -0.017169,-0.013491 -0.064614,-0.05583 -0.054362,-0.036551 0.2120601,0.398766 0.2505874,0.238737 0.2290977,0.4025434 -0.00355,0.013578 -0.00726,0.027115 -0.010655,0.040732 -0.00196,0.0078 0.00488,-0.01537 0.0063,-0.023286 0.00978,-0.054584 0.016198,-0.1097705 0.027259,-0.1641086 0.006,-0.029448 -0.00675,0.059764 -0.012039,0.089348 -0.00161,0.00903 -0.011409,0.034883 -0.0086,0.026149 0.00571,-0.017756 0.011538,-0.035477 0.017306,-0.053216 -0.018071,0.03448 -0.038267,0.067926 -0.05421,0.1034397 -0.0059,0.01315 0.038109,-0.03337 0.023939,-0.036009 -0.015285,-0.00285 -0.021204,0.022765 -0.031224,0.034652 -0.011382,0.013504 0.056016,-0.057863 0.022746,-0.028299 -0.00984,0.00661 -0.019611,0.01333 -0.029523,0.019839 -9.789e-4,6.615e-4 0.0018,-0.00156 0.00275,-0.00225 0.035383,-0.025964 0.071413,-0.051057 0.1062636,-0.077731 0.022185,-0.016981 -0.044713,0.033599 -0.068256,0.048641 -0.00935,0.00597 -0.039958,0.019331 -0.030113,0.014206 0.026617,-0.013859 0.05363,-0.02694 0.080445,-0.04041 -0.017553,0.00544 -0.070348,0.021299 -0.052735,0.01606 0.023061,-0.00686 0.092937,-0.017425 0.069116,-0.020809 -0.036722,-0.00522 -0.073642,0.00906 -0.1102593,0.014965 -0.00953,0.00153 0.031398,0.00725 0.028548,-0.00483 -0.018174,-0.013459 0.00332,0.00331 0.04346,0.00788 0.06558,0.00747 0.1314738,0.011914 0.1972842,0.016968 0.0022,1.688e-4 0.00867,-0.00106 0.00648,-0.00132 -0.1277236,-0.015571 -0.024522,0.00906 -0.1845583,-0.043269 -0.06515,-0.037725 -0.030424,-0.016661 0.1121437,0.048562 0.0022,0.00101 -0.00891,-0.00361 -0.00658,-0.003 0.040807,0.010739 0.1571151,0.056961 0.1221044,0.033406 C 8.4499538,2.7969246 8.8431031,3.1691278 8.5676442,2.889532 8.5533382,2.863605 8.5086642,2.7868755 8.5247252,2.811752 c 0.096502,0.1494639 0.059813,0.132715 0.1688571,0.2348217 0.014462,0.013541 -0.028321,-0.028286 -0.038506,-0.045281 -0.074219,-0.1238478 -0.055887,-0.1114992 -0.075012,-0.2625104 -0.00183,0.094428 -0.0036,0.1889647 0.00397,0.2832286 7.144e-4,0.00357 6.086e-4,0.01401 0.00217,0.010721 0.00415,-0.00864 0.00353,-0.018883 0.00617,-0.028103 2.112e-4,-7.408e-4 0.0023,-0.00159 0.00214,-8.467e-4 -0.064216,0.2742171 0.022244,-0.091451 -0.03766,0.1450719 0.024585,-0.048181 0.00262,-0.00687 -0.025898,0.081128 -0.0039,0.012028 -0.017134,0.046765 -0.00944,0.036734 0.074549,-0.097155 0.1126495,-0.2386872 0.2397916,-0.2799656 -0.040955,0.021516 -0.082762,0.041482 -0.1228653,0.064545 -0.015634,0.00899 -0.036419,0.015089 -0.044031,0.031438 -0.013348,0.028666 0.2428134,-0.182753 -0.092519,0.039359 0.083909,-0.032265 0.011644,-0.00763 0.1558304,-0.035623 5.82e-4,-1.119e-4 -0.062639,0.00153 -0.035084,0.00853 -0.00882,-0.0018 -0.017518,-0.00435 -0.02646,-0.0054 -0.061663,-0.00724 -0.1236983,-0.011255 -0.185243,-0.019442 -0.018619,-0.00249 0.037691,-2.521e-4 0.056301,0.0023 0.019785,0.0027 0.039498,0.00692 0.058395,0.013383 0.020894,0.00714 0.080957,0.03524 0.060391,0.027208 -0.037901,-0.014801 -0.074953,-0.031688 -0.11243,-0.047532 0.1069674,0.045508 7.938e-4,-0.00114 -0.115063,-0.032708 -0.1156351,-0.031502 0.086613,0.020831 0.1063797,0.039203 0.1594228,0.148187 0.1180655,0.081857 0.1725533,0.1830673 -0.054888,-0.1050147 -0.02834,-0.062972 -0.1589844,-0.2104403 -0.00835,-0.00942 -0.018669,-0.017219 -0.029598,-0.023474 -0.00648,-0.00371 0.011266,0.0099 0.015981,0.015682 0.018767,0.023029 0.038781,0.04533 0.05436,0.070625 0.013298,0.02159 0.021148,0.046092 0.031722,0.069137 -0.036138,-0.094491 -0.00913,-0.028258 -0.1118669,-0.2116807 -5.292e-4,-9.525e-4 0.0014,0.004 6.615e-4,0.0032 -0.0039,-0.00423 -0.012536,-0.019111 -0.010419,-0.013761 0.012544,0.031712 0.027689,0.062334 0.041897,0.093337 0.00169,0.00371 -0.00291,-0.00763 -0.00437,-0.011435 0.021659,0.2378504 0.00362,-0.0053 0.010634,-0.052404 -0.0018,-0.021622 -0.00303,-0.043298 -0.0054,-0.064863 -0.00151,-0.01361 2.355e-4,-0.052687 -0.00621,-0.040607 -0.00699,0.013102 0.00499,0.029526 0.00421,0.044357 -0.012314,0.2347217 -7.409e-4,0.038 -0.035171,0.1864688 -0.00338,0.014568 0.011515,-0.027604 0.017272,-0.041406 -0.013687,0.022868 -0.056586,0.090265 -0.041059,0.068605 0.055618,-0.077585 0.098971,-0.1645703 0.1310492,-0.2543559 0.00895,-0.025043 0.033568,-0.05223 0.022677,-0.076492 -0.01016,-0.02263 -0.017105,0.046571 -0.025657,0.069856 0.030313,-0.069705 -0.00527,0.015296 -0.1027787,0.12325 -0.01075,0.011904 -0.025958,0.018899 -0.039593,0.027345 -0.00811,0.00502 -0.033656,0.017939 -0.025503,0.012983 0.028885,-0.01756 0.072437,-0.020693 0.087756,-0.050826 0.014153,-0.027838 -0.055672,0.028314 -0.083508,0.042471 0.00613,-0.00246 0.024924,-0.00832 0.018381,-0.00742 -0.055513,0.00768 -0.1142841,0.00576 -0.1658069,0.027806 -0.039139,0.016746 0.085268,-0.00402 0.1272121,-0.011292 0.034326,-0.00595 0.067325,-0.018013 0.1006338,-0.028222 0.010644,-0.00326 0.04218,-0.013282 0.031105,-0.012158 -0.053443,0.00542 -0.1061183,0.016769 -0.1591775,0.025154 0.1127011,0 0.2254019,0 0.3381028,0 z" />
    <path
       style="fill:#ff94c9;fill-opacity:1;stroke-width:0.264583"
       id="path6"
       d="M 2.0825393,6.325418 C 1.8680949,6.3780775 1.6528268,6.442435 1.4638955,6.5603995 1.4203989,6.5875579 1.3797526,6.6190349 1.3376812,6.6483523 1.1896721,6.7496221 1.049872,6.8659308 0.93049581,7.0002389 0.85450142,7.085739 0.78919397,7.1777629 0.72124799,7.2694381 0.5073492,7.588474 0.44653742,7.9680482 0.38028263,8.3381264 c -0.0224391,0.1845686 -0.037649,0.3700251 -0.0395214,0.5560108 -0.001291,0.1283766 0.005577,0.257003 0.008996,0.3853137 0.00642,0.186272 0.0500765,0.3676349 0.1227229,0.5390227 0.0222544,0.052503 0.0503455,0.1023445 0.0766138,0.1529583 0.0172932,0.03332 0.0333957,0.067457 0.0540504,0.098805 0.0348744,0.05293 0.0748034,0.10235 0.1122051,0.153525 0.0750239,0.109321 0.1740643,0.198125 0.27404409,0.283774 0.0390423,0.03345 0.10354768,0.0863 0.14384438,0.114598 0.039519,0.02775 0.08068,0.05309 0.1210196,0.07963 0.2162257,0.145599 0.4680959,0.207622 0.7210986,0.250986 0.044652,0.0044 0.089298,0.0089 0.1339549,0.01322 0.096134,0.0094 0.1326904,0.01384 0.2345777,0.01734 0.1315315,0.0045 0.2633215,-4.76e-4 0.3948322,-0.0031 0.2804615,0.0034 0.561884,-0.0095 0.8377295,-0.06452 0.064425,-0.01284 0.1277456,-0.03071 0.1916184,-0.04606 0.1773592,-0.06406 0.3628335,-0.102394 0.5406845,-0.164835 0.1287222,-0.04519 0.1860603,-0.07177 0.3085899,-0.123916 0.16061,-0.07197 0.3260566,-0.134054 0.4777536,-0.224544 0.040274,-0.02402 0.1733794,-0.114621 0.2261611,-0.150329 C 5.4741905,10.103512 5.6161138,9.9860463 5.735797,9.8456403 5.76359,9.8130343 5.789697,9.7790273 5.816646,9.7457203 5.9236824,9.5948147 6.0226469,9.4376281 6.116297,9.2780561 6.2100193,9.1721621 6.267006,9.0415786 6.332239,8.9180264 6.339569,8.9041464 6.389794,8.8227784 6.398807,8.8080926 6.469163,8.6936944 6.5265192,8.5694276 6.5421243,8.4343501 c 0.00975,-0.084414 0.00451,-0.1297305 0.00934,-0.078249 0.019436,-0.033894 0.016171,-0.025855 0.027752,-0.096703 0.029206,-0.1786572 0.012655,-0.1134224 0.016224,-0.275735 8.34e-5,-0.0038 0.00371,-0.00681 0.00432,-0.010565 0.00282,-0.017545 0.00392,-0.035323 0.00588,-0.052984 0.040017,-0.5642057 -0.051598,-0.239555 -0.9964171,-0.1675127 0.0013,-0.026794 0.021389,-0.060032 0.00391,-0.080381 -0.015145,-0.017634 -0.00943,0.045523 -0.014333,0.068247 -0.00465,0.021587 -0.00933,0.043172 -0.014311,0.064687 -0.016087,0.069476 -0.036141,0.1430991 -0.04674,0.2129234 -0.00944,0.062212 -0.014094,0.1250572 -0.02114,0.1875856 -0.00427,0.05376 -0.00781,0.1075836 -0.012795,0.1612815 -0.013589,0.1462569 -0.029119,0.2922622 -0.038344,0.4389419 -0.010835,0.1722938 -0.00874,0.1867781 -0.01053,0.3587438 0.00156,0.2050243 0.0055,0.4104434 0.031347,0.6141424 0.010485,0.082623 0.026724,0.1635564 0.041949,0.245355 0.063595,0.275289 0.192205,0.527859 0.3349262,0.769454 0.104325,0.144599 0.2158648,0.287856 0.363024,0.391913 0.097349,0.06884 0.1483492,0.08992 0.2494486,0.139914 0.1104019,0.05066 0.2228615,0.09791 0.3369053,0.139853 0.045084,0.01658 0.089702,0.03507 0.1362491,0.04694 0.07448,0.01899 0.1498695,0.03535 0.2260674,0.04545 0.073303,0.0097 0.1475999,0.0092 0.2214001,0.01383 0.2235063,0.0036 0.4489765,0.01732 0.6717948,-0.0091 0.1313805,-0.01558 0.3143557,-0.05258 0.4467921,-0.07783 0.3865631,-0.06968 0.7684969,-0.171232 1.1317896,-0.322015 0.071642,-0.02973 0.1414629,-0.06368 0.2121943,-0.09552 0.056038,-0.024 0.112305,-0.04747 0.1681143,-0.072 0.142403,-0.06258 0.211453,-0.09071 0.343602,-0.171751 0.14436,-0.08853 0.278345,-0.194292 0.412388,-0.29734 0.05845,-0.0641 0.134663,-0.110575 0.193714,-0.174268 0.124448,-0.134232 0.233539,-0.284544 0.329942,-0.4399214 0.03377,-0.054426 0.06454,-0.1106561 0.09681,-0.1659842 0.126931,-0.2435731 0.225274,-0.4999921 0.297407,-0.7649012 0.04891,-0.1796356 0.0671,-0.2809973 0.104472,-0.4615106 0.05044,-0.2125678 0.04738,-0.4311091 0.03658,-0.6476322 -0.0029,-0.057227 -0.0033,-0.1147879 -0.01132,-0.1715193 C 11.79904,7.4776969 11.7783,7.4359542 11.715605,7.2280464 11.682119,7.1516678 11.654375,7.0725056 11.615148,6.9989109 11.444459,6.6786778 11.182557,6.4219581 10.92054,6.1770341 10.801211,6.0836434 10.732046,6.0233326 10.601797,5.9457245 10.497083,5.883331 10.383686,5.8327141 10.27327,5.781435 10.120893,5.7106687 10.135283,5.7177736 9.9704953,5.6435817 9.8596317,5.5961737 9.7837124,5.5596123 9.669033,5.5256667 9.6241531,5.512382 9.5780973,5.5034259 9.5324178,5.4932246 9.4799401,5.4815036 9.4105539,5.4719098 9.3606249,5.4742857 c -0.049046,0.00233 -0.0972,0.014002 -0.1458005,0.021003 -0.013099,0.00403 -0.026199,0.00806 -0.039298,0.012084 0,0 0.3121581,0.9500301 0.3121581,0.9500301 v 0 c -0.00484,0.00132 -0.00968,0.00262 -0.014515,0.00394 -0.1909487,0.021365 -0.047487,0.014687 -0.1789829,0.00459 -0.011187,-8.466e-4 0.021971,0.00471 0.033111,0.00603 0.00623,7.408e-4 0.012742,-0.00143 0.018817,1.325e-4 0.076438,0.019725 0.1399506,0.051839 0.2139546,0.083382 0.196297,0.088319 0.1113258,0.04948 0.2916205,0.1327507 0.039939,0.018447 0.079846,0.036963 0.1197991,0.055378 0.02603,0.011996 0.053242,0.021677 0.078148,0.035859 0.06569,0.037401 0.127679,0.084495 0.18882,0.1288458 0.142412,0.1324885 0.280563,0.2658319 0.401761,0.4185748 0.02281,0.028749 0.04665,0.056978 0.06571,0.088343 0.02131,0.035074 0.03661,0.073464 0.05492,0.1101957 0.01614,0.049183 0.0633,0.183995 0.07192,0.2413503 0.0074,0.049169 0.007,0.099198 0.01006,0.1488244 0.0084,0.135372 0.01932,0.2691929 -0.01704,0.4022543 -0.02849,0.1395796 -0.04675,0.2394619 -0.08321,0.3769849 -0.03988,0.1504246 -0.09019,0.2938293 -0.152931,0.4359902 -0.01696,0.038427 -0.03477,0.076473 -0.05215,0.1147093 -0.05817,0.1020932 -0.07085,0.1295524 -0.136622,0.2250448 -0.02498,0.036266 -0.05276,0.070538 -0.07787,0.1067189 -0.0081,0.011745 -0.01215,0.026379 -0.02179,0.036929 -0.03942,0.043125 -0.08933,0.075754 -0.128372,0.1193576 -0.101928,0.078632 -0.101433,0.079296 -0.2099117,0.1583705 -0.051133,0.037273 -0.1112088,0.082388 -0.1684954,0.1110905 -0.052877,0.02649 -0.1075925,0.04916 -0.1617355,0.07296 -0.06232,0.02739 -0.1250921,0.05375 -0.1876383,0.08062 -0.052924,0.02436 -0.1051174,0.05037 -0.1587706,0.07308 -0.3071093,0.129984 -0.6316356,0.213988 -0.9592718,0.272632 -0.00396,7.68e-4 -0.3063978,0.05922 -0.3324359,0.06274 -0.1835455,0.02483 -0.3702479,0.0083 -0.5545148,0.0074 -0.04177,1e-6 -0.1252067,0.0029 -0.1693585,-0.007 -0.031189,-0.007 -0.060971,-0.01928 -0.09097,-0.03032 -0.091738,-0.03373 -0.182626,-0.07105 -0.2716509,-0.111367 -0.00373,-0.0016 -0.063359,-0.02824 -0.072953,-0.03147 -0.00271,-9e-4 -0.00632,0.0014 -0.00856,-3.44e-4 -0.03991,-0.0316 -0.06595,-0.07664 -0.1041667,-0.109922 C 6.6381696,10.142168 6.5603244,9.9966096 6.5111985,9.8403329 6.5013533,9.787965 6.488476,9.7360736 6.4817098,9.6832194 6.4600246,9.5138636 6.4559103,9.3435015 6.4549033,9.1729715 c 0.00167,-0.2910642 0.029949,-0.5801431 0.05693,-0.8697267 0.00183,-0.028057 0.00159,-0.056326 0.00551,-0.084171 0.022394,-0.1596543 0.084357,-0.3125983 0.091844,-0.4750535 -0.6655054,0.016513 -1.0553327,-0.3051606 -0.9921872,0.072991 0.00332,0.019857 -0.00507,-0.040192 -0.00373,-0.060278 0.00124,-0.018497 -2.91e-4,0.1409491 -0.0018,0.055583 -0.00887,0.083207 -0.012906,0.1093952 -0.015507,0.2034985 -2.003e-4,0.00725 -0.00233,0.01688 0.00326,0.021505 0.00374,0.0031 0.00775,-0.017158 0.00785,-0.012298 9.79e-4,0.051793 -0.063662,0.097242 -0.039147,0.1503939 -0.00566,0.039351 -0.011332,0.078701 -0.016997,0.1180518 0.00146,-0.00693 0.0014,-0.014356 0.00435,-0.020786 0.00225,-0.00491 -0.00146,0.010708 -0.00217,0.016063 0.011628,-0.02754 0.023254,-0.05508 0.034883,-0.082621 0.010777,-0.028719 -0.062294,0.1381432 -0.042978,0.081371 -0.045918,0.075656 -0.068136,0.1103135 -0.1128247,0.1947627 -0.033339,0.063 -0.020026,0.053548 -0.055589,0.112046 -0.020886,0.034358 -0.1194366,0.1739194 -0.1264253,0.1839347 -0.065916,0.1182859 -0.1440553,0.2300597 -0.215958,0.3447568 -0.032716,0.042497 -0.066043,0.085633 -0.1039154,0.1237774 -0.050477,0.05084 -0.1125431,0.088059 -0.1693788,0.1309769 -0.028739,0.019444 -0.057749,0.038492 -0.086218,0.058329 -0.019508,0.013594 -0.03756,0.029297 -0.05769,0.041949 -0.122937,0.077274 -0.262551,0.121574 -0.3930488,0.1834817 -0.058532,0.025215 -0.1543439,0.067704 -0.2153883,0.089408 -0.1591755,0.056595 -0.325964,0.089413 -0.4842145,0.1488694 -0.034468,0.00936 -0.068415,0.020905 -0.1034044,0.028074 -0.049739,0.010192 -0.1001827,0.016618 -0.1504255,0.023932 -0.070923,0.010327 -0.1742744,0.024273 -0.2482609,0.026794 -0.101115,0.00344 -0.2024081,-0.00321 -0.303516,0.00183 -0.106872,0.00214 -0.2143122,0.00711 -0.321227,0.00434 -0.1002994,-0.00259 -0.094009,-0.00601 -0.2011153,-0.014978 -0.018971,-0.00159 -0.038005,-0.00233 -0.057007,-0.00347 -0.06255,-0.00988 -0.1269009,-0.018399 -0.1878122,-0.03671 -0.020773,-0.00624 -0.040619,-0.015396 -0.061497,-0.02128 -0.00581,-0.00164 -0.012682,0.00156 -0.018077,-0.00114 C 1.84506,9.8936291 1.820402,9.8759431 1.794598,9.8603291 1.738747,9.8264011 1.6904536,9.7898361 1.640098,9.7482164 1.624457,9.7352884 1.608996,9.7221364 1.593111,9.7095094 1.584381,9.7025694 1.573643,9.6978904 1.566263,9.6895234 1.542662,9.6627654 1.522616,9.6330694 1.500793,9.6048424 1.45335,9.5702264 1.48777,9.5998124 1.433934,9.5055544 1.384558,9.4191004 1.35053,9.3569152 1.349396,9.2527837 1.346446,9.1422267 1.340036,9.031297 1.340406,8.9206909 1.3408029,8.8029796 1.344776,8.761694 1.354143,8.6390903 1.357323,8.5974853 1.361133,8.5559313 1.364631,8.514352 1.389719,8.3742048 1.412708,8.2348721 1.446266,8.0964656 1.462183,8.0308186 1.472756,7.9843646 1.497502,7.9230175 1.505742,7.9025915 1.516371,7.8832165 1.525806,7.8633155 1.580639,7.7886375 1.6383034,7.6964967 1.7055869,7.6315622 1.7729519,7.5665492 1.8489727,7.5082534 1.9266641,7.4565027 c 0.043369,-0.037393 0.083957,-0.057265 0.1364926,-0.081704 0.011663,-0.00543 0.02277,-0.012216 0.034941,-0.016378 0.030494,-0.010427 0.062258,-0.016857 0.092751,-0.027287 0.011565,-0.00396 0.022072,-0.010507 0.033108,-0.015759 z" />
  </g>
</svg>
